<mxfile host="Electron" modified="2024-01-30T14:31:13.854Z" agent="Mozilla/5.0 (Windows NT 10.0; Win64; x64) AppleWebKit/537.36 (KHTML, like Gecko) draw.io/22.0.2 Chrome/114.0.5735.289 Electron/25.8.4 Safari/537.36" etag="ivQf2a0RJjgHcZr6mV7U" version="22.0.2" type="device">
  <diagram name="Page-1" id="_mGLaoDk6QDmeuDdav_K">
    <mxGraphModel dx="901" dy="527" grid="1" gridSize="10" guides="1" tooltips="1" connect="1" arrows="1" fold="1" page="1" pageScale="1" pageWidth="827" pageHeight="1169" math="0" shadow="0">
      <root>
        <mxCell id="0" />
        <mxCell id="1" parent="0" />
        <mxCell id="AS2f9lZHMe0GR5eItfKD-51" value="" style="sketch=0;outlineConnect=0;fontColor=#232F3E;gradientColor=none;fillColor=#7AA116;strokeColor=none;dashed=0;verticalLabelPosition=bottom;verticalAlign=top;align=center;html=1;fontSize=12;fontStyle=0;aspect=fixed;pointerEvents=1;shape=mxgraph.aws4.mqtt_protocol;" parent="1" vertex="1">
          <mxGeometry x="520" y="450" width="40" height="40" as="geometry" />
        </mxCell>
        <mxCell id="AS2f9lZHMe0GR5eItfKD-62" value="" style="sketch=0;outlineConnect=0;fontColor=#232F3E;gradientColor=none;fillColor=#FFFFFF;strokeColor=none;dashed=0;verticalLabelPosition=bottom;verticalAlign=top;align=center;html=1;fontSize=12;fontStyle=0;aspect=fixed;pointerEvents=1;shape=mxgraph.aws4.hardware_board;labelBackgroundColor=#82b366;" parent="1" vertex="1">
          <mxGeometry x="345" y="232.5" width="60" height="60" as="geometry" />
        </mxCell>
        <mxCell id="AS2f9lZHMe0GR5eItfKD-63" value="Device" style="text;html=1;strokeColor=none;fillColor=none;align=center;verticalAlign=middle;whiteSpace=wrap;rounded=0;fontSize=15;fontStyle=1;fontColor=#FFFFFF;" parent="1" vertex="1">
          <mxGeometry x="330" y="292.5" width="90" height="30" as="geometry" />
        </mxCell>
        <mxCell id="AS2f9lZHMe0GR5eItfKD-72" value="" style="endArrow=none;dashed=1;html=1;rounded=0;entryX=1;entryY=1;entryDx=0;entryDy=0;exitX=0;exitY=1;exitDx=0;exitDy=0;" parent="1" edge="1">
          <mxGeometry width="50" height="50" relative="1" as="geometry">
            <mxPoint x="78.99999999999989" y="622.5" as="sourcePoint" />
            <mxPoint x="379" y="622.5" as="targetPoint" />
          </mxGeometry>
        </mxCell>
        <mxCell id="AS2f9lZHMe0GR5eItfKD-93" value="" style="sketch=0;outlineConnect=0;fontColor=#232F3E;gradientColor=none;fillColor=#FFFFFF;strokeColor=none;dashed=0;verticalLabelPosition=bottom;verticalAlign=top;align=center;html=1;fontSize=12;fontStyle=0;aspect=fixed;pointerEvents=1;shape=mxgraph.aws4.hardware_board;labelBackgroundColor=#82b366;" parent="1" vertex="1">
          <mxGeometry x="335" y="242.5" width="60" height="60" as="geometry" />
        </mxCell>
        <mxCell id="AS2f9lZHMe0GR5eItfKD-94" value="Device" style="text;html=1;strokeColor=none;fillColor=none;align=center;verticalAlign=middle;whiteSpace=wrap;rounded=0;fontSize=15;fontStyle=1;fontColor=#FFFFFF;" parent="1" vertex="1">
          <mxGeometry x="320" y="302.5" width="90" height="30" as="geometry" />
        </mxCell>
        <mxCell id="AS2f9lZHMe0GR5eItfKD-125" value="" style="rounded=0;whiteSpace=wrap;html=1;fillColor=#E6E6E6;strokeColor=#7aa116;strokeWidth=5;glass=0;" parent="1" vertex="1">
          <mxGeometry x="40" y="320" width="450" height="360" as="geometry" />
        </mxCell>
        <mxCell id="AS2f9lZHMe0GR5eItfKD-126" value="" style="rounded=0;whiteSpace=wrap;html=1;fillColor=#dae8fc;strokeColor=#6c8ebf;" parent="1" vertex="1">
          <mxGeometry x="50" y="450" width="190" height="150" as="geometry" />
        </mxCell>
        <mxCell id="AS2f9lZHMe0GR5eItfKD-127" value="Arm SystemReady" style="rounded=0;whiteSpace=wrap;html=1;fontSize=12;strokeColor=none;fillColor=none;" parent="1" vertex="1">
          <mxGeometry x="50" y="640" width="430" height="30" as="geometry" />
        </mxCell>
        <mxCell id="AS2f9lZHMe0GR5eItfKD-128" value="Linux OS" style="rounded=0;whiteSpace=wrap;html=1;fontSize=12;strokeColor=none;fillColor=#6C8EBF;" parent="1" vertex="1">
          <mxGeometry x="50" y="610" width="430" height="30" as="geometry" />
        </mxCell>
        <mxCell id="AS2f9lZHMe0GR5eItfKD-129" value="" style="endArrow=none;dashed=1;html=1;rounded=0;entryX=1;entryY=0;entryDx=0;entryDy=0;exitX=0;exitY=0;exitDx=0;exitDy=0;" parent="1" edge="1" target="AS2f9lZHMe0GR5eItfKD-128" source="AS2f9lZHMe0GR5eItfKD-128">
          <mxGeometry width="50" height="50" relative="1" as="geometry">
            <mxPoint x="69" y="560" as="sourcePoint" />
            <mxPoint x="369" y="542.5" as="targetPoint" />
            <Array as="points" />
          </mxGeometry>
        </mxCell>
        <mxCell id="AS2f9lZHMe0GR5eItfKD-130" value="" style="endArrow=none;dashed=1;html=1;rounded=0;exitX=0;exitY=1;exitDx=0;exitDy=0;entryX=0;entryY=0;entryDx=0;entryDy=0;" parent="1" source="AS2f9lZHMe0GR5eItfKD-127" edge="1" target="AS2f9lZHMe0GR5eItfKD-128">
          <mxGeometry width="50" height="50" relative="1" as="geometry">
            <mxPoint x="119" y="712.5" as="sourcePoint" />
            <mxPoint x="69" y="560" as="targetPoint" />
          </mxGeometry>
        </mxCell>
        <mxCell id="AS2f9lZHMe0GR5eItfKD-131" value="" style="endArrow=none;dashed=1;html=1;rounded=0;entryX=1;entryY=0;entryDx=0;entryDy=0;" parent="1" target="AS2f9lZHMe0GR5eItfKD-128" edge="1">
          <mxGeometry width="50" height="50" relative="1" as="geometry">
            <mxPoint x="480" y="670" as="sourcePoint" />
            <mxPoint x="560.3809756324405" y="710" as="targetPoint" />
          </mxGeometry>
        </mxCell>
        <mxCell id="AS2f9lZHMe0GR5eItfKD-132" value="" style="endArrow=none;dashed=1;html=1;rounded=0;exitX=0;exitY=1;exitDx=0;exitDy=0;" parent="1" source="AS2f9lZHMe0GR5eItfKD-127" edge="1">
          <mxGeometry width="50" height="50" relative="1" as="geometry">
            <mxPoint x="79" y="552.5" as="sourcePoint" />
            <mxPoint x="480" y="670" as="targetPoint" />
          </mxGeometry>
        </mxCell>
        <mxCell id="AS2f9lZHMe0GR5eItfKD-133" value="" style="rounded=0;whiteSpace=wrap;html=1;fillColor=#E6E6E6;strokeColor=#7AA116;" parent="1" vertex="1">
          <mxGeometry x="250" y="366.25" width="230" height="233.75" as="geometry" />
        </mxCell>
        <mxCell id="AS2f9lZHMe0GR5eItfKD-135" value="" style="image;sketch=0;aspect=fixed;html=1;points=[];align=center;fontSize=12;image=img/lib/mscae/Docker.svg;" parent="1" vertex="1">
          <mxGeometry x="181.22" y="430" width="48.78" height="40" as="geometry" />
        </mxCell>
        <mxCell id="AS2f9lZHMe0GR5eItfKD-141" value="" style="sketch=0;outlineConnect=0;fontColor=#232F3E;gradientColor=none;fillColor=#7AA116;strokeColor=none;dashed=0;verticalLabelPosition=bottom;verticalAlign=top;align=center;html=1;fontSize=12;fontStyle=0;aspect=fixed;pointerEvents=1;shape=mxgraph.aws4.certificate_manager;" parent="1" vertex="1">
          <mxGeometry x="59.09" y="327.4999999999999" width="37.82" height="50" as="geometry" />
        </mxCell>
        <mxCell id="AS2f9lZHMe0GR5eItfKD-151" value="Unique certificate" style="text;html=1;strokeColor=none;fillColor=none;align=center;verticalAlign=middle;whiteSpace=wrap;rounded=0;fontStyle=0" parent="1" vertex="1">
          <mxGeometry x="40" y="375" width="76" height="30" as="geometry" />
        </mxCell>
        <mxCell id="AS2f9lZHMe0GR5eItfKD-152" value="" style="rounded=0;whiteSpace=wrap;html=1;fillColor=#7aa116;strokeColor=#729615;" parent="1" vertex="1">
          <mxGeometry x="420" y="257.5" width="90" height="100" as="geometry" />
        </mxCell>
        <mxCell id="AS2f9lZHMe0GR5eItfKD-153" value="" style="sketch=0;outlineConnect=0;fontColor=#232F3E;gradientColor=none;fillColor=#FFFFFF;strokeColor=none;dashed=0;verticalLabelPosition=bottom;verticalAlign=top;align=center;html=1;fontSize=12;fontStyle=0;aspect=fixed;pointerEvents=1;shape=mxgraph.aws4.hardware_board;labelBackgroundColor=#82b366;" parent="1" vertex="1">
          <mxGeometry x="435" y="267.5" width="60" height="60" as="geometry" />
        </mxCell>
        <mxCell id="AS2f9lZHMe0GR5eItfKD-154" value="Device" style="text;html=1;strokeColor=none;fillColor=none;align=center;verticalAlign=middle;whiteSpace=wrap;rounded=0;fontSize=15;fontStyle=1;fontColor=#FFFFFF;" parent="1" vertex="1">
          <mxGeometry x="420" y="327.5" width="90" height="30" as="geometry" />
        </mxCell>
        <mxCell id="AS2f9lZHMe0GR5eItfKD-171" value="" style="sketch=0;points=[[0,0,0],[0.25,0,0],[0.5,0,0],[0.75,0,0],[1,0,0],[0,1,0],[0.25,1,0],[0.5,1,0],[0.75,1,0],[1,1,0],[0,0.25,0],[0,0.5,0],[0,0.75,0],[1,0.25,0],[1,0.5,0],[1,0.75,0]];outlineConnect=0;fontColor=#232F3E;fillColor=#7AA116;strokeColor=#ffffff;dashed=0;verticalLabelPosition=bottom;verticalAlign=top;align=center;html=1;fontSize=12;fontStyle=1;aspect=fixed;shape=mxgraph.aws4.resourceIcon;resIcon=mxgraph.aws4.iot_core;" parent="1" vertex="1">
          <mxGeometry x="600" y="450" width="40" height="40" as="geometry" />
        </mxCell>
        <mxCell id="AS2f9lZHMe0GR5eItfKD-181" value="AWS IoT Core" style="text;html=1;strokeColor=none;fillColor=none;align=center;verticalAlign=middle;whiteSpace=wrap;rounded=0;fontStyle=1" parent="1" vertex="1">
          <mxGeometry x="590" y="490" width="60" height="40" as="geometry" />
        </mxCell>
        <mxCell id="AS2f9lZHMe0GR5eItfKD-196" value="" style="endArrow=classic;startArrow=classic;html=1;rounded=0;startFill=1;exitX=0;exitY=0.5;exitDx=0;exitDy=0;exitPerimeter=0;strokeWidth=1;" parent="1" source="AS2f9lZHMe0GR5eItfKD-171" target="AS2f9lZHMe0GR5eItfKD-51" edge="1">
          <mxGeometry width="50" height="50" relative="1" as="geometry">
            <mxPoint x="730" y="468.75" as="sourcePoint" />
            <mxPoint x="730" y="418.75" as="targetPoint" />
          </mxGeometry>
        </mxCell>
        <mxCell id="AS2f9lZHMe0GR5eItfKD-139" value="Led application" style="rounded=0;whiteSpace=wrap;html=1;fillColor=#fff2cc;strokeColor=#d6b656;" parent="1" vertex="1">
          <mxGeometry x="150" y="540" width="80" height="50" as="geometry" />
        </mxCell>
        <mxCell id="PlPkAJLwa9iJBvHNIDEE-9" value="OS update component" style="text;html=1;strokeColor=none;fillColor=none;align=center;verticalAlign=middle;whiteSpace=wrap;rounded=0;fontStyle=0" vertex="1" parent="1">
          <mxGeometry x="388" y="411.25" width="76" height="30" as="geometry" />
        </mxCell>
        <mxCell id="PlPkAJLwa9iJBvHNIDEE-12" value="" style="group" vertex="1" connectable="0" parent="1">
          <mxGeometry x="406" y="371.25" width="40" height="40" as="geometry" />
        </mxCell>
        <mxCell id="PlPkAJLwa9iJBvHNIDEE-13" value="" style="whiteSpace=wrap;html=1;aspect=fixed;fillColor=#FFFFFF;strokeColor=#7AA116;" vertex="1" parent="PlPkAJLwa9iJBvHNIDEE-12">
          <mxGeometry width="40" height="40" as="geometry" />
        </mxCell>
        <mxCell id="PlPkAJLwa9iJBvHNIDEE-14" value="" style="sketch=0;outlineConnect=0;fontColor=#232F3E;gradientColor=none;fillColor=#7AA116;strokeColor=none;dashed=0;verticalLabelPosition=bottom;verticalAlign=top;align=center;html=1;fontSize=12;fontStyle=0;aspect=fixed;pointerEvents=1;shape=mxgraph.aws4.iot_greengrass_component;" vertex="1" parent="PlPkAJLwa9iJBvHNIDEE-12">
          <mxGeometry x="2.5" y="2.5" width="35" height="35" as="geometry" />
        </mxCell>
        <mxCell id="PlPkAJLwa9iJBvHNIDEE-15" value="Led component" style="text;html=1;strokeColor=none;fillColor=none;align=center;verticalAlign=middle;whiteSpace=wrap;rounded=0;fontStyle=0" vertex="1" parent="1">
          <mxGeometry x="383" y="573.75" width="86" height="22.5" as="geometry" />
        </mxCell>
        <mxCell id="PlPkAJLwa9iJBvHNIDEE-19" value="Button component" style="text;html=1;strokeColor=none;fillColor=none;align=center;verticalAlign=middle;whiteSpace=wrap;rounded=0;fontStyle=0" vertex="1" parent="1">
          <mxGeometry x="264" y="573.75" width="108" height="22.5" as="geometry" />
        </mxCell>
        <mxCell id="PlPkAJLwa9iJBvHNIDEE-23" value="Corrupt component" style="text;html=1;strokeColor=none;fillColor=none;align=center;verticalAlign=middle;whiteSpace=wrap;rounded=0;fontStyle=0" vertex="1" parent="1">
          <mxGeometry x="280" y="490" width="76" height="30" as="geometry" />
        </mxCell>
        <mxCell id="PlPkAJLwa9iJBvHNIDEE-27" value="Button application" style="rounded=0;whiteSpace=wrap;html=1;fillColor=#d5e8d4;strokeColor=#82b366;" vertex="1" parent="1">
          <mxGeometry x="60" y="540" width="80" height="50" as="geometry" />
        </mxCell>
        <mxCell id="PlPkAJLwa9iJBvHNIDEE-28" value="Corrupt application" style="rounded=0;whiteSpace=wrap;html=1;fillColor=#f8cecc;strokeColor=#b85450;" vertex="1" parent="1">
          <mxGeometry x="60" y="480" width="80" height="50" as="geometry" />
        </mxCell>
        <mxCell id="PlPkAJLwa9iJBvHNIDEE-29" value="Certificate rotator application" style="rounded=0;whiteSpace=wrap;html=1;fillColor=#e1d5e7;strokeColor=#9673a6;" vertex="1" parent="1">
          <mxGeometry x="150" y="480" width="80" height="50" as="geometry" />
        </mxCell>
        <mxCell id="PlPkAJLwa9iJBvHNIDEE-30" value="" style="sketch=0;points=[[0,0,0],[0.25,0,0],[0.5,0,0],[0.75,0,0],[1,0,0],[0,1,0],[0.25,1,0],[0.5,1,0],[0.75,1,0],[1,1,0],[0,0.25,0],[0,0.5,0],[0,0.75,0],[1,0.25,0],[1,0.5,0],[1,0.75,0]];outlineConnect=0;fontColor=#232F3E;fillColor=#7AA116;strokeColor=#ffffff;dashed=0;verticalLabelPosition=bottom;verticalAlign=top;align=center;html=1;fontSize=12;fontStyle=0;aspect=fixed;shape=mxgraph.aws4.resourceIcon;resIcon=mxgraph.aws4.greengrass;" vertex="1" parent="1">
          <mxGeometry x="250" y="366.25" width="40" height="40" as="geometry" />
        </mxCell>
        <mxCell id="PlPkAJLwa9iJBvHNIDEE-31" value="AWS IoT Greengrass" style="text;html=1;strokeColor=none;fillColor=none;align=left;verticalAlign=middle;whiteSpace=wrap;rounded=0;fontStyle=1;fontColor=#7AA116;" vertex="1" parent="1">
          <mxGeometry x="294" y="371.25" width="76" height="30" as="geometry" />
        </mxCell>
        <mxCell id="PlPkAJLwa9iJBvHNIDEE-32" value="Certificate rotator component" style="text;html=1;strokeColor=none;fillColor=none;align=center;verticalAlign=middle;whiteSpace=wrap;rounded=0;fontStyle=0" vertex="1" parent="1">
          <mxGeometry x="377" y="490" width="98" height="30" as="geometry" />
        </mxCell>
        <mxCell id="PlPkAJLwa9iJBvHNIDEE-37" value="" style="endArrow=classic;startArrow=classic;html=1;rounded=0;startFill=1;strokeWidth=1;entryX=1;entryY=0.5;entryDx=0;entryDy=0;" edge="1" parent="1" source="AS2f9lZHMe0GR5eItfKD-51" target="PlPkAJLwa9iJBvHNIDEE-13">
          <mxGeometry width="50" height="50" relative="1" as="geometry">
            <mxPoint x="710" y="491" as="sourcePoint" />
            <mxPoint x="640" y="491" as="targetPoint" />
          </mxGeometry>
        </mxCell>
        <mxCell id="PlPkAJLwa9iJBvHNIDEE-38" value="" style="endArrow=classic;startArrow=classic;html=1;rounded=0;startFill=1;strokeWidth=1;entryX=1;entryY=0.5;entryDx=0;entryDy=0;" edge="1" parent="1" source="AS2f9lZHMe0GR5eItfKD-51" target="PlPkAJLwa9iJBvHNIDEE-35">
          <mxGeometry width="50" height="50" relative="1" as="geometry">
            <mxPoint x="580" y="480" as="sourcePoint" />
            <mxPoint x="526" y="401" as="targetPoint" />
          </mxGeometry>
        </mxCell>
        <mxCell id="PlPkAJLwa9iJBvHNIDEE-39" value="" style="endArrow=classic;startArrow=classic;html=1;rounded=0;startFill=1;strokeWidth=1;entryX=1;entryY=0.5;entryDx=0;entryDy=0;" edge="1" parent="1" source="AS2f9lZHMe0GR5eItfKD-51" target="PlPkAJLwa9iJBvHNIDEE-21">
          <mxGeometry width="50" height="50" relative="1" as="geometry">
            <mxPoint x="590" y="510" as="sourcePoint" />
            <mxPoint x="526" y="480" as="targetPoint" />
          </mxGeometry>
        </mxCell>
        <mxCell id="PlPkAJLwa9iJBvHNIDEE-40" value="" style="endArrow=classic;startArrow=classic;html=1;rounded=0;startFill=1;strokeWidth=1;entryX=1;entryY=0.5;entryDx=0;entryDy=0;exitX=0;exitY=0.5;exitDx=0;exitDy=0;" edge="1" parent="1" source="PlPkAJLwa9iJBvHNIDEE-21" target="PlPkAJLwa9iJBvHNIDEE-17">
          <mxGeometry width="50" height="50" relative="1" as="geometry">
            <mxPoint x="400" y="554" as="sourcePoint" />
            <mxPoint x="456" y="564" as="targetPoint" />
          </mxGeometry>
        </mxCell>
        <mxCell id="PlPkAJLwa9iJBvHNIDEE-21" value="" style="whiteSpace=wrap;html=1;aspect=fixed;fillColor=#fff2cc;strokeColor=#d6b656;" vertex="1" parent="1">
          <mxGeometry x="406" y="533.75" width="40" height="40" as="geometry" />
        </mxCell>
        <mxCell id="PlPkAJLwa9iJBvHNIDEE-22" value="" style="sketch=0;outlineConnect=0;fontColor=#232F3E;gradientColor=none;fillColor=#7AA116;strokeColor=none;dashed=0;verticalLabelPosition=bottom;verticalAlign=top;align=center;html=1;fontSize=12;fontStyle=0;aspect=fixed;pointerEvents=1;shape=mxgraph.aws4.iot_greengrass_component;" vertex="1" parent="1">
          <mxGeometry x="408.5" y="536.25" width="35" height="35" as="geometry" />
        </mxCell>
        <mxCell id="PlPkAJLwa9iJBvHNIDEE-17" value="" style="whiteSpace=wrap;html=1;aspect=fixed;fillColor=#d5e8d4;strokeColor=#82b366;" vertex="1" parent="1">
          <mxGeometry x="298" y="533.75" width="40" height="40" as="geometry" />
        </mxCell>
        <mxCell id="PlPkAJLwa9iJBvHNIDEE-18" value="" style="sketch=0;outlineConnect=0;fontColor=#232F3E;gradientColor=none;fillColor=#7AA116;strokeColor=none;dashed=0;verticalLabelPosition=bottom;verticalAlign=top;align=center;html=1;fontSize=12;fontStyle=0;aspect=fixed;pointerEvents=1;shape=mxgraph.aws4.iot_greengrass_component;" vertex="1" parent="1">
          <mxGeometry x="300.5" y="536.25" width="35" height="35" as="geometry" />
        </mxCell>
        <mxCell id="PlPkAJLwa9iJBvHNIDEE-34" value="" style="group" vertex="1" connectable="0" parent="1">
          <mxGeometry x="406" y="450" width="40" height="40" as="geometry" />
        </mxCell>
        <mxCell id="PlPkAJLwa9iJBvHNIDEE-35" value="" style="whiteSpace=wrap;html=1;aspect=fixed;fillColor=#e1d5e7;strokeColor=#9673a6;" vertex="1" parent="PlPkAJLwa9iJBvHNIDEE-34">
          <mxGeometry width="40" height="40" as="geometry" />
        </mxCell>
        <mxCell id="PlPkAJLwa9iJBvHNIDEE-36" value="" style="sketch=0;outlineConnect=0;fontColor=#232F3E;gradientColor=none;fillColor=#7AA116;strokeColor=none;dashed=0;verticalLabelPosition=bottom;verticalAlign=top;align=center;html=1;fontSize=12;fontStyle=0;aspect=fixed;pointerEvents=1;shape=mxgraph.aws4.iot_greengrass_component;" vertex="1" parent="PlPkAJLwa9iJBvHNIDEE-34">
          <mxGeometry x="2.5" y="2.5" width="35" height="35" as="geometry" />
        </mxCell>
        <mxCell id="PlPkAJLwa9iJBvHNIDEE-25" value="" style="whiteSpace=wrap;html=1;aspect=fixed;fillColor=#f8cecc;strokeColor=#b85450;" vertex="1" parent="1">
          <mxGeometry x="298" y="450" width="40" height="40" as="geometry" />
        </mxCell>
        <mxCell id="PlPkAJLwa9iJBvHNIDEE-26" value="" style="sketch=0;outlineConnect=0;fontColor=#232F3E;gradientColor=none;fillColor=#7AA116;strokeColor=none;dashed=0;verticalLabelPosition=bottom;verticalAlign=top;align=center;html=1;fontSize=12;fontStyle=0;aspect=fixed;pointerEvents=1;shape=mxgraph.aws4.iot_greengrass_component;" vertex="1" parent="1">
          <mxGeometry x="300.5" y="452.5" width="35" height="35" as="geometry" />
        </mxCell>
      </root>
    </mxGraphModel>
  </diagram>
</mxfile>
